<svg width="24" height="24" viewBox="0 0 24 24" fill="none" xmlns="http://www.w3.org/2000/svg">
<path fill-rule="evenodd" clip-rule="evenodd" d="M12 6C11.45 6 11 5.55 11 5V3C11 2.45 11.45 2 12 2C12.55 2 13 2.45 13 3V5C13 5.55 12.55 6 12 6ZM7.75995 7.76002C7.36995 8.15002 6.73996 8.15002 6.34996 7.76002L4.93996 6.35002C4.54996 5.96002 4.54996 5.33002 4.93996 4.94002C5.32996 4.55002 5.95996 4.55002 6.34996 4.94002L7.75995 6.35002C8.14995 6.73002 8.14995 7.37002 7.75995 7.76002ZM5 13C5.55 13 6 12.55 6 12C6 11.45 5.55 11 5 11H3C2.45 11 2 11.45 2 12C2 12.55 2.45 13 3 13H5ZM7.75995 16.24C8.14995 16.63 8.14995 17.26 7.75995 17.65L6.34996 19.06C5.95996 19.45 5.32996 19.45 4.93996 19.06C4.54996 18.67 4.54996 18.04 4.93996 17.65L6.34996 16.24C6.72996 15.85 7.36995 15.85 7.75995 16.24ZM13 19C13 18.45 12.55 18 12 18C11.45 18 11 18.45 11 19V21C11 21.55 11.45 22 12 22C12.55 22 13 21.55 13 21V19ZM16.24 16.24C16.63 15.85 17.26 15.85 17.65 16.24L19.06 17.65C19.45 18.04 19.45 18.67 19.06 19.06C18.67 19.45 18.04 19.45 17.65 19.06L16.24 17.65C15.85 17.27 15.85 16.63 16.24 16.24ZM19 11C18.45 11 18 11.45 18 12C18 12.55 18.45 13 19 13H21C21.55 13 22 12.55 22 12C22 11.45 21.55 11 21 11H19ZM16.24 7.76002C15.85 7.37002 15.85 6.74002 16.24 6.35002L17.65 4.94002C18.04 4.55002 18.67 4.55002 19.06 4.94002C19.45 5.33002 19.45 5.96002 19.06 6.35002L17.65 7.76002C17.27 8.15002 16.63 8.15002 16.24 7.76002ZM16.5 12C16.5 14.4853 14.4853 16.5 12 16.5C9.51472 16.5 7.5 14.4853 7.5 12C7.5 9.51472 9.51472 7.5 12 7.5C14.4853 7.5 16.5 9.51472 16.5 12Z" fill="#314146"/>
</svg>
