<svg width="24" height="24" viewBox="0 0 24 24" fill="none" xmlns="http://www.w3.org/2000/svg">
<path fill-rule="evenodd" clip-rule="evenodd" d="M14.2302 5H9.67017L9.14017 7.9L7.42017 6.18L7.79017 4.15C7.91017 3.48 8.49017 3 9.17017 3H15.6102C16.3002 3 16.7802 3.67 16.5602 4.32L15.0002 9L16.8102 9.6C17.4302 9.8 17.6902 10.52 17.3502 11.07L15.4402 14.18L13.9902 12.73L14.9902 11.1L13.2402 10.52C12.8202 10.38 12.5902 9.93 12.7302 9.51L14.2302 5ZM4.71031 6.29L18.7103 20.29C19.1003 20.68 19.0903 21.31 18.7003 21.7C18.3103 22.09 17.6803 22.09 17.2903 21.7L13.2703 17.68L10.7403 21.79C10.6603 21.92 10.5303 21.98 10.4003 21.98C10.2003 21.98 10.0003 21.83 10.0003 21.58V14.41L9.59031 14H7.20031C6.57031 14 6.10031 13.43 6.22031 12.82L6.56031 10.96L3.30031 7.7C2.91031 7.31 2.91031 6.68 3.30031 6.29C3.69031 5.9 4.32031 5.9 4.71031 6.29Z" fill="#FAFDFF"/>
</svg>
