<svg width="24" height="24" viewBox="0 0 24 24" fill="none" xmlns="http://www.w3.org/2000/svg">
<path d="M14.2301 5L12.7301 9.51C12.5901 9.93 12.8201 10.38 13.2401 10.52L14.9901 11.1L12.0001 17V12.8C12.0001 12.36 11.6401 12 11.2001 12H8.40012L9.67012 5H14.2301ZM15.6101 3H9.17012C8.49012 3 7.91012 3.48 7.79012 4.15L6.21012 12.82C6.10012 13.43 6.57012 14 7.20012 14H10.0001V21.59C10.0001 21.84 10.2001 21.99 10.4001 21.99C10.5301 21.99 10.6601 21.93 10.7401 21.8L17.3401 11.08C17.6801 10.53 17.4201 9.81 16.8001 9.61L15.0001 9L16.5601 4.32C16.7801 3.67 16.3001 3 15.6101 3Z" fill="#314146"/>
</svg>
