<svg width="24" height="24" viewBox="0 0 24 24" fill="none" xmlns="http://www.w3.org/2000/svg">
<path fill-rule="evenodd" clip-rule="evenodd" d="M12.7801 9.36L14.2301 5H9.67012L8.40012 12H11.1101C11.5901 12 11.9601 12.41 11.9101 12.88L11.5001 17L14.5001 11L13.1801 10.33C12.8201 10.15 12.6501 9.74 12.7801 9.36ZM9.17012 3H15.6101C16.3001 3 16.7801 3.67 16.5601 4.32L15.0001 9L16.0701 9.54C16.5701 9.79 16.7701 10.41 16.5001 10.91L10.6501 21.78C10.5901 21.9 10.4701 21.96 10.3501 21.96C10.1801 21.96 10.0001 21.83 10.0001 21.61V14H7.20012C6.57012 14 6.10012 13.43 6.21012 12.82L7.79012 4.15C7.91012 3.48 8.49012 3 9.17012 3ZM20.11 13H17.74L13.78 21H15.74L16.59 19.15H19.03L19.22 21H21.29L20.11 13ZM17.19 17.76L18.55 14.73H18.65L18.93 17.76H17.19Z" fill="#314146"/>
</svg>
