<svg width="24" height="24" viewBox="0 0 24 24" fill="none" xmlns="http://www.w3.org/2000/svg">
<path fill-rule="evenodd" clip-rule="evenodd" d="M21.7998 10H22.9998C23.4098 10 23.6498 10.47 23.3998 10.8L21.3998 13.47C21.1998 13.74 20.7998 13.74 20.5998 13.47L18.5998 10.8C18.3498 10.47 18.5898 10 18.9998 10H19.7398C18.8498 6.56 15.7198 4 11.9998 4C9.35976 4 6.89976 5.3 5.39976 7.48C5.08976 7.94 4.46976 8.05 4.00976 7.74C3.54976 7.43 3.43976 6.81 3.74976 6.35C5.61976 3.63 8.69976 2 11.9998 2C16.8298 2 20.8698 5.44 21.7998 10ZM11.9998 20C14.6398 20 17.0998 18.7 18.5998 16.52C18.9098 16.06 19.5398 15.95 19.9898 16.26C20.4498 16.57 20.5598 17.19 20.2498 17.65C18.3798 20.37 15.2998 22 11.9998 22C7.16982 22 3.12982 18.56 2.19982 14H0.999824C0.589824 14 0.349824 13.53 0.599824 13.2L2.59982 10.53C2.79982 10.26 3.19982 10.26 3.39982 10.53L5.39982 13.2C5.64982 13.53 5.40982 14 4.99982 14H4.25982C5.14982 17.44 8.27982 20 11.9998 20Z" fill="#FAFDFF"/>
</svg>
