<svg width="24" height="24" viewBox="0 0 24 24" fill="none" xmlns="http://www.w3.org/2000/svg">
<path fill-rule="evenodd" clip-rule="evenodd" d="M19.0002 13C19.0002 9.14 15.8602 6 12.0002 6C11.4502 6 11.0002 5.55 11.0002 5V3C11.0002 2.45 11.4502 2 12.0002 2C12.5502 2 13.0002 2.45 13.0002 3V4.06C17.4902 4.55 21.0002 8.38 21.0002 13C21.0002 14.39 20.6802 15.7 20.1202 16.88L18.5902 15.35C18.8502 14.61 19.0002 13.82 19.0002 13ZM2.30031 3.29C2.69031 2.9 3.32032 2.9 3.71032 3.29L20.7003 20.3C21.0903 20.69 21.0903 21.32 20.7003 21.71C20.3103 22.1 19.6803 22.1 19.2903 21.71L17.6103 20.03C16.0703 21.26 14.1203 22 12.0003 22C7.04031 22 3.00031 17.96 3.00031 13C3.00031 10.94 3.70031 8.98 4.98031 7.38L2.30031 4.7C1.91031 4.31 1.91031 3.68 2.30031 3.29ZM5.00031 13C5.00031 16.86 8.14031 20 12.0003 20C13.5703 20 15.0203 19.47 16.1903 18.6L6.4003 8.81C5.5003 10.02 5.00031 11.47 5.00031 13Z" fill="#FAFDFF"/>
</svg>
