<svg width="24" height="24" viewBox="0 0 24 24" fill="none" xmlns="http://www.w3.org/2000/svg">
<path fill-rule="evenodd" clip-rule="evenodd" d="M3 13C3 17.96 7.04 22 12 22C16.96 22 21 17.96 21 13C21 8.38 17.49 4.56 13 4.06V3C13 2.45 12.55 2 12 2C11.45 2 11 2.45 11 3V5C11 5.55 11.45 6 12 6C15.86 6 19 9.14 19 13C19 16.86 15.86 20 12 20C8.14 20 5 16.86 5 13C5 11.14 5.73 9.38 7.05 8.04C7.43 7.65 7.42999 7.02 7.03999 6.63C6.64999 6.25 6.02 6.25 5.63 6.64C3.93 8.34 3 10.6 3 13ZM10.5901 14.91C10.3701 14.65 10.1501 14.54 9.87009 14.54C9.39009 14.54 9.09009 14.92 9.09009 15.37C9.09009 16.32 10.3201 17.19 11.9301 17.19C13.8701 17.19 15.1201 16.04 15.1201 14.29C15.1201 12.72 14.0801 11.67 12.5301 11.67C11.8301 11.67 11.2001 11.91 10.9201 12.28H10.8201L10.9501 10.55H13.8901C14.4601 10.55 14.7701 10.28 14.7701 9.79001C14.7701 9.30001 14.4501 9.01001 13.8901 9.01001H10.5601C9.83009 9.01001 9.44009 9.32001 9.40009 9.95001L9.2101 12.8C9.1701 13.4 9.60009 13.8 10.1701 13.8C10.4001 13.8 10.6101 13.73 10.9001 13.5C11.2501 13.25 11.6401 13.11 12.0001 13.11C12.7401 13.11 13.2701 13.62 13.2701 14.35C13.2701 15.12 12.7201 15.64 11.9501 15.64C11.4201 15.64 10.9901 15.41 10.5901 14.91Z" fill="#314146"/>
</svg>
