<svg width="24" height="24" viewBox="0 0 24 24" fill="none" xmlns="http://www.w3.org/2000/svg">
<path d="M13.4115 12.0005L18.7072 6.71055C19.0976 6.32055 19.0976 5.69055 18.7072 5.30055C18.3168 4.91055 17.6861 4.91055 17.2957 5.30055L12 10.5905L6.70433 5.29055C6.31391 4.90055 5.68323 4.90055 5.29281 5.29055C4.9024 5.68055 4.9024 6.31055 5.29281 6.70055L10.5885 12.0005L5.29281 17.2905C4.9024 17.6805 4.9024 18.3105 5.29281 18.7005C5.68323 19.0905 6.31391 19.0905 6.70433 18.7005L12 13.4105L17.2957 18.7005C17.6861 19.0905 18.3168 19.0905 18.7072 18.7005C19.0976 18.3105 19.0976 17.6805 18.7072 17.2905L13.4115 12.0005Z" fill="#FAFDFF"/>
</svg>
