<svg width="24" height="24" viewBox="0 0 24 24" fill="none" xmlns="http://www.w3.org/2000/svg">
<path fill-rule="evenodd" clip-rule="evenodd" d="M7.00001 20H17C17.552 20 18 19.552 18 19V14.414L15 11.414L11.061 15.354C10.477 15.939 9.52301 15.939 8.93901 15.354L8.00001 14.414L6.00001 16.414V19C6.00001 19.552 6.44801 20 7.00001 20ZM17 4H7.00001C6.44801 4 6.00001 4.448 6.00001 5V13.586L6.93901 12.646C7.52301 12.061 8.47701 12.061 9.06101 12.646L10 13.586L13.939 9.646C14.523 9.061 15.477 9.061 16.061 9.646L18 11.586V5C18 4.448 17.552 4 17 4ZM7 2H17C18.657 2 20 3.343 20 5V19C20 20.657 18.657 22 17 22H7C5.343 22 4 20.657 4 19V5C4 3.343 5.343 2 7 2ZM8.5 9C9.328 9 10 8.328 10 7.5C10 6.672 9.328 6 8.5 6C7.672 6 7 6.672 7 7.5C7 8.328 7.672 9 8.5 9Z" fill="#FAFDFF"/>
</svg>
